# AST/ASF file generated using VICON BodyLanguage
# -----------------------------------------------
:version 1.10
:name VICON
:units
  mass 1.0
  length 0.45
  angle deg
:documentation
   .ast/.asf automatically generated from VICON data using
   VICON BodyBuilder and BodyLanguage model FoxedUp or BRILLIANT.MOD
:root
   order TX TY TZ RX RY RZ
   axis XYZ
   position 0 0 0  
   orientation 0 0 0 
:bonedata
  begin
     id 1 
     name lhipjoint
     direction 0.710188 -0.616876 0.339259 
     length 2.5669 
     axis 0 0 0  XYZ
  end
  begin
     id 2 
     name lfemur
     direction 0.34202 -0.939693 0  
     length 7.12796  
     axis 0 0 20  XYZ
    dof rx ry rz
    limits (-160.0 20.0)
           (-70.0 70.0)
           (-60.0 70.0)
  end
  begin
     id 3 
     name ltibia
     direction 0.34202 -0.939693 0   
     length 7.58108   
     axis 0 0 20   XYZ
    dof rx
    limits (-10.0 170.0)
  end
  begin
     id 4 
     name lfoot
     direction 0.0669471 -0.183936 0.980656   
     length 2.17365   
     axis -90 7.62852e-016 20   XYZ
    dof rx rz
    limits (-45.0 90.0)
           (-70.0 20.0)
  end
  begin
     id 5 
     name ltoes
     direction 1.53508e-011 -4.21705e-011 1   
     length 1.09427   
     axis -90 7.62852e-016 20   XYZ
    dof rx
    limits (-90.0 20.0)
  end
  begin
     id 6 
     name rhipjoint
     direction -0.700191 -0.625589 0.34405   
     length 2.53115  
     axis 0 0 0  XYZ 
  end
  begin
     id 7 
     name rfemur
     direction -0.34202 -0.939693 0   
     length 7.33006   
     axis 0 0 -20   XYZ
    dof rx ry rz
    limits (-160.0 20.0)
           (-70.0 70.0)
           (-70.0 60.0)
  end
  begin
     id 8 
     name rtibia
     direction -0.34202 -0.939693 0   
     length 7.64926   
     axis 0 0 -20   XYZ
    dof rx
    limits (-10.0 170.0)
 end
 begin
     id 9 
     name rfoot
     direction -0.0688927 -0.189281 0.979503   
     length 2.20493  
     axis -90 -7.62852e-016 -20   XYZ
    dof rx rz
    limits (-45.0 90.0)
           (-20.0 70.0)
  end
  begin
     id 10 
     name rtoes
     direction -1.53567e-011 -4.21933e-011 1   
     length 1.10919   
     axis -90 -7.62852e-016 -20   XYZ
    dof rx
    limits (-90.0 20.0)
  end
  begin
     id 11 
     name lowerback
     direction -0.0167868 0.989873 -0.140959   
     length 2.14596   
     axis 0 0 0   XYZ
    dof rx ry rz
    limits (-20.0 45.0)
           (-30.0 30.0)
           (-30.0 30.0)
  end
  begin
     id 12 
     name upperback
     direction 0.0129109 0.998033 0.0613525   
     length 2.10457   
     axis 0 0 0   XYZ
    dof rx ry rz
    limits (-20.0 45.0)
           (-30.0 30.0)
           (-30.0 30.0)
  end
  begin
     id 13 
     name thorax
     direction 0.0177047 0.991119 0.131797   
     length 2.17652   
     axis 0 0 0   XYZ
    dof rx ry rz
    limits (-20.0 45.0)
           (-30.0 30.0)
           (-30.0 30.0)
  end
  begin
     id 14 
     name lowerneck
     direction -0.0336893 0.997548 0.0613464   
     length 1.8912   
     axis 0 0 0   XYZ
    dof rx ry rz
    limits (-20.0 45.0)
           (-30.0 30.0)
           (-30.0 30.0)
  end
  begin
     id 15 
     name upperneck
     direction 0.0435909 0.997179 -0.0611028   
     length 1.8829   
     axis 0 0 0   XYZ
    dof rx ry rz
    limits (-20.0 45.0)
           (-30.0 30.0)
           (-30.0 30.0)
  end
  begin
     id 16
     name head
     direction 0.0175076 0.999444 -0.0283782  
     length 1.93197  
     axis 0 0 0   XYZ
    dof rx ry rz
    limits (-20.0 45.0)
           (-30.0 30.0)
           (-30.0 30.0)
  end
  begin
     id 17 
     name lclavicle
     direction 0.919164 0.389875 0.0559876  
     length 3.60004  
     axis 0 0 0   XYZ
    dof ry rz
    limits (-20.0 10.0)
           (0.0 20.0)
  end
  begin
     id 18 
     name lhumerus
     direction 1 -4.48958e-011 6.89191e-027   
     length 5.43301   
     axis 180 -30 -90   XYZ
    dof rx ry rz
    limits (-60.0 90.0)
           (-90.0 90.0)
           (-90.0 90.0)
  end
  begin
     id 19
     name lradius
     direction 1 -4.4897e-011 3.24727e-027   
     length 3.15936   
     axis 180 -30 -90   XYZ
    dof rx
    limits (-10.0 170.0)
  end
  begin
     id 20
     name lwrist
     direction 1 -4.4897e-011 9.00228e-027   
     length 1.57968   
     axis -6.29373e-015 90 90   XYZ
    dof ry
    limits (-180.0 0.0)
 end
  begin
     id 21 
     name lhand
     direction 1 -4.48968e-011 1.80042e-026   
     length 0.712827   
     axis -1.14882e-014 90 90   XYZ
    dof rx rz
    limits (-90.0 90.0)
           (-45.0 45.0)
  end
  begin
     id 22 
     name lfingers
     direction 1 -4.49019e-011 3.60267e-026   
     length 0.574699   
     axis -2.29769e-014 90 90   XYZ
    dof rx
    limits (0.0 90.0)
  end
  begin
     id 23
     name lthumb
     direction 0.707107 -6.3498e-011 0.707107   
     length 0.825157   
     axis -90 45 5.37419e-014   XYZ
    dof rx rz
    limits (-45.0 45.0)
           (-45.0 45.0)
  end
  begin
     id 24 
     name rclavicle
     direction -0.890334 0.455305 -0.00132111   
     length 3.51494  
     axis 0 0 0   XYZ 
    dof ry rz
    limits (-10.0 20.0)
           (-20.0 0.0)
  end
  begin
     id 25 
     name rhumerus
     direction -1 -4.48967e-011 5.07175e-028  
     length 5.34194   
     axis 180 30 90   XYZ
    dof rx ry rz
    limits (-90.0 60.0)
           (-90.0 90.0)
           (-90.0 90.0)
  end
  begin
     id 26 
     name rradius
     direction -1 -4.48955e-011 3.30467e-027   
     length 3.19351   
     axis 180 30 90   XYZ
    dof rx
    limits (-10.0 170.0)
  end
  begin
     id 27 
     name rwrist
     direction -1 -4.48968e-011 9.00208e-027   
     length 1.59676   
     axis -6.29373e-015 -90 -90   XYZ
    dof ry
    limits (-180.0 0.0)
  end
  begin
     id 28
     name rhand
     direction -1 -4.49e-011 1.80099e-026   
     length 0.743862   
     axis -1.14882e-014 -90 -90   XYZ
    dof rx rz
    limits (-90.0 90.0)
           (-45.0 45.0)
  end
  begin
     id 29
     name rfingers
     direction -1 -4.49009e-011 3.6023e-026   
     length 0.599721   
     axis -2.29769e-014 -90 -90   XYZ
    dof rx
    limits (0.0 90.0)
  end
  begin
     id 30
     name rthumb
     direction -0.707107 -6.35025e-011 0.707107   
     length 0.861083   
     axis -90 -45 -5.37419e-014   XYZ
    dof rx rz
    limits (-45.0 45.0)
           (-45.0 45.0)
  end
:hierarchy
  begin
    root lhipjoint rhipjoint lowerback
    lhipjoint lfemur
    lfemur ltibia
    ltibia lfoot
    lfoot ltoes
    rhipjoint rfemur
    rfemur rtibia
    rtibia rfoot
    rfoot rtoes
    lowerback upperback
    upperback thorax
    thorax lowerneck lclavicle rclavicle
    lowerneck upperneck
    upperneck head
    lclavicle lhumerus
    lhumerus lradius
    lradius lwrist
    lwrist lhand lthumb
    lhand lfingers
    rclavicle rhumerus
    rhumerus rradius
    rradius rwrist
    rwrist rhand rthumb
    rhand rfingers
  end

#!OML:ASF H:\Martial Arts Walks\Project 1\Capture day 1\Session 1\male.ASF
:FULLY-SPECIFIED
:DEGREES
807
root -1.17673 13.8144 18.4627 12.3258 24.4487 12.0041
lowerback 10.1702 3.54252 -14.8539
upperback -2.3279 2.59427 -2.20283
thorax -8.91184 1.96673 5.45121
lowerneck 0.870556 -12.2388 -12.0669
upperneck 1.64648 -16.6381 10.317
head 2.21651 -8.32593 4.43237
rclavicle 6.90528e-014 1.43125e-014
rhumerus 44.0172 -12.7925 -57.1383
rradius 18.714
rwrist 28.8963
rhand -15.5544 -24.2923
rfingers 7.12502
rthumb 10.63 -54.0034
lclavicle 6.90528e-014 1.43125e-014
lhumerus -73.417 -17.1367 102.156
lradius 104.36
lwrist 63.8061
lhand -5.2602 50.529
lfingers 7.12502
lthumb 20.5434 79.462
rfemur -70.6011 -24.4523 9.7504
rtibia 71.2367
rfoot -4.68386 10.243
rtoes 6.84267
lfemur 18.5194 0.656461 -15.6528
ltibia 18.9596
lfoot -15.6346 33.5488
ltoes -27.072
808
root -1.17287 13.8024 18.4908 12.4078 24.433 12.0235
lowerback 10.1094 3.54036 -14.8644
upperback -2.33889 2.60019 -2.2051
thorax -8.8906 1.96946 5.45544
lowerneck 0.92553 -12.2482 -12.066
upperneck 1.63294 -16.6559 10.3267
head 2.20645 -8.33627 4.43792
rclavicle 6.75868e-015 3.85642e-014
rhumerus 44.0647 -12.8038 -57.1417
rradius 18.7428
rwrist 28.933
rhand -15.499 -24.3536
rfingers 7.12502
rthumb 10.6834 -54.062
lclavicle 6.75868e-015 3.85642e-014
lhumerus -73.3399 -17.1583 102.162
lradius 104.263
lwrist 63.8136
lhand -5.11381 50.5418
lfingers 7.12502
lthumb 20.6841 79.4596
rfemur -70.7796 -24.4979 9.79465
rtibia 71.5366
rfoot -4.89032 10.2211
rtoes 6.72725
lfemur 18.7602 0.660322 -15.6273
ltibia 18.5549
lfoot -15.4691 33.5143
ltoes -27.1861
809
root -1.16865 13.7904 18.5183 12.4712 24.4347 12.0229
lowerback 10.0592 3.52987 -14.8452
upperback -2.34923 2.59711 -2.20697
thorax -8.87089 1.96639 5.44531
lowerneck 0.977865 -12.2549 -12.0642
upperneck 1.62756 -16.6705 10.3395
head 2.19908 -8.34489 4.44402
rclavicle 2.55687e-014 -2.16675e-014
rhumerus 44.1115 -12.8045 -57.1558
rradius 18.7636
rwrist 28.9934
rhand -15.4477 -24.4219
rfingers 7.12502
rthumb 10.7329 -54.1277
lclavicle 2.55687e-014 -2.16675e-014
lhumerus -73.2555 -17.1807 102.158
lradius 104.158
lwrist 63.8229
lhand -4.98116 50.5268
lfingers 7.12502
lthumb 20.8115 79.4307
rfemur -70.9357 -24.547 9.84861
rtibia 71.831
rfoot -5.09824 10.1879
rtoes 6.62207
lfemur 18.9824 0.665878 -15.5785
ltibia 18.2028
lfoot -15.3523 33.4876
ltoes -27.2392
810
root -1.16459 13.7786 18.5452 12.5168 24.4494 11.9999
lowerback 10.0193 3.51497 -14.8047
upperback -2.35702 2.58962 -2.20397
thorax -8.85221 1.96018 5.42944
lowerneck 1.01586 -12.2632 -12.0622
upperneck 1.63271 -16.6863 10.3513
head 2.19716 -8.35371 4.44834
rclavicle 7.34758e-014 5.08889e-014
rhumerus 44.159 -12.7846 -57.1507
rradius 18.7787
rwrist 29.0402
rhand -15.373 -24.4887
rfingers 7.12502
rthumb 10.805 -54.1908
lclavicle 7.34758e-014 5.08889e-014
lhumerus -73.16 -17.2044 102.147
lradius 104.049
lwrist 63.8307
lhand -4.83753 50.4357
lfingers 7.12502
lthumb 20.9495 79.3243
rfemur -71.0748 -24.594 9.91859
rtibia 72.1215
rfoot -5.31039 10.1426
rtoes 6.51617
lfemur 19.186 0.677436 -15.502
ltibia 17.8966
lfoot -15.2681 33.4638
ltoes -27.2691
811
root -1.16079 13.7666 18.5714 12.5534 24.4786 11.9823
lowerback 9.99286 3.49697 -14.7687
upperback -2.36298 2.57498 -2.20173
thorax -8.83811 1.95091 5.41611
lowerneck 1.05739 -12.2703 -12.0574
upperneck 1.63315 -16.7008 10.3648
head 2.19307 -8.36196 4.45334
rclavicle -3.47625e-014 -8.34896e-015
rhumerus 44.1996 -12.7493 -57.1249
rradius 18.7896
rwrist 29.0756
rhand -15.2505 -24.528
rfingers 7.12502
rthumb 10.9232 -54.2238
lclavicle -3.47625e-014 -8.34896e-015
lhumerus -73.066 -17.2292 102.134
lradius 103.941
lwrist 63.8324
lhand -4.69709 50.2769
lfingers 7.12502
lthumb 21.0844 79.1506
rfemur -71.2003 -24.6551 9.97926
rtibia 72.4127
rfoot -5.51769 10.0982
rtoes 6.45391
lfemur 19.3791 0.689956 -15.4219
ltibia 17.6262
lfoot -15.2262 33.4318
ltoes -27.2934
812
root -1.15705 13.7544 18.597 12.5819 24.5144 11.9748
lowerback 9.97684 3.47938 -14.7448
upperback -2.36595 2.5576 -2.19987
thorax -8.82691 1.94094 5.4092
lowerneck 1.09614 -12.2777 -12.0475
upperneck 1.63231 -16.7148 10.3724
head 2.18804 -8.36992 4.4558
rclavicle -2.85256e-014 4.96962e-015
rhumerus 44.2367 -12.702 -57.0763
rradius 18.7964
rwrist 29.0919
rhand -15.0697 -24.5463
rfingers 7.12502
rthumb 11.0975 -54.2329
lclavicle -2.85256e-014 4.96962e-015
lhumerus -72.972 -17.2525 102.125
lradius 103.835
lwrist 63.8226
lhand -4.53543 50.0374
lfingers 7.12502
lthumb 21.2397 78.8937
rfemur -71.313 -24.7283 10.0267
rtibia 72.7056
rfoot -5.72526 10.0601
rtoes 6.39359
lfemur 19.568 0.706521 -15.3452
ltibia 17.3844
lfoot -15.2068 33.3942
ltoes -27.3434
813
root -1.15358 13.7421 18.6221 12.6127 24.5572 11.9847
lowerback 9.96562 3.46289 -14.7427
upperback -2.36776 2.53798 -2.19895
thorax -8.8181 1.93107 5.41341
lowerneck 1.13081 -12.2835 -12.0314
upperneck 1.63095 -16.7261 10.3746
head 2.18222 -8.3764 4.45584
rclavicle 2.02015e-014 -1.19271e-015
rhumerus 44.2723 -12.6562 -57.0151
rradius 18.7983
rwrist 29.1042
rhand -14.8286 -24.5396
rfingers 7.12502
rthumb 11.33 -54.2136
lclavicle 2.02015e-014 -1.19271e-015
lhumerus -72.888 -17.2755 102.124
lradius 103.742
lwrist 63.8134
lhand -4.3909 49.8039
lfingers 7.12502
lthumb 21.3785 78.6445
rfemur -71.4227 -24.8165 10.0572
rtibia 72.9993
rfoot -5.92425 10.0319
rtoes 6.35948
lfemur 19.7448 0.722811 -15.2782
ltibia 17.1687
lfoot -15.2061 33.3456
ltoes -27.4299
